<svg width="72" height="72" viewBox="0 0 72 72" fill="none" xmlns="http://www.w3.org/2000/svg">
<path d="M69.8455 1.71931C69.073 0.952342 68.104 0.413138 67.0452 0.160992C65.9864 -0.0911127 64.8781 -0.0464409 63.843 0.290148L4.10385 20.2168C2.99592 20.5679 2.0169 21.2394 1.29039 22.1466C0.563884 23.0537 0.122517 24.1558 0.0220258 25.3137C-0.078465 26.4716 0.166412 27.6331 0.725747 28.6519C1.28512 29.6707 2.1338 30.5009 3.16468 31.0378L27.9505 43.2878L40.2005 68.1553C40.693 69.1284 41.4463 69.9458 42.3765 70.5155C43.3067 71.0851 44.3774 71.3848 45.468 71.3811H45.8764C47.0446 71.295 48.1598 70.8597 49.0773 70.1312C49.9948 69.4032 50.6722 68.4158 51.0214 67.2978L71.2339 7.72181C71.5948 6.69253 71.6561 5.5819 71.4102 4.51921C71.1644 3.45657 70.6218 2.48559 69.8455 1.71931ZM6.63551 25.8518L58.7797 8.45681L29.8288 37.4078L6.63551 25.8518ZM45.7539 64.9295L34.1572 41.7361L63.108 12.7851L45.7539 64.9295Z" fill="#FEF2F2"/>
</svg>
